<svg width="16" height="16" viewBox="0 0 16 16" fill="none" xmlns="http://www.w3.org/2000/svg">
<path d="M14.1906 9.33334H11.3333V2.66667H14.1906C14.2541 2.66711 14.3167 2.68067 14.3747 2.70648C14.4326 2.73229 14.4846 2.76981 14.5273 2.81667C14.6177 2.91574 14.6675 3.04523 14.6666 3.17934V8.82067C14.6673 8.95487 14.6173 9.08437 14.5266 9.18334C14.484 9.23012 14.4321 9.26759 14.3743 9.2934C14.3165 9.31921 14.254 9.33281 14.1906 9.33334V9.33334Z" stroke="#8693A5" stroke-linecap="round" stroke-linejoin="round"/>
<path d="M11.3332 9.44934L8.66449 14.6667C8.38449 14.6667 8.10649 14.6127 7.84716 14.508C7.58899 14.4037 7.3537 14.2499 7.15449 14.0553C6.95702 13.8626 6.79976 13.6326 6.69182 13.3787C6.5846 13.126 6.52928 12.8544 6.52916 12.58V11.0147H2.40049C2.24916 11.0147 2.09982 10.9833 1.96182 10.922C1.82443 10.8617 1.70131 10.7731 1.60049 10.662C1.50031 10.5524 1.42527 10.4222 1.38059 10.2806C1.33592 10.1389 1.32269 9.98927 1.34182 9.84201L2.14182 3.58067C2.17449 3.32867 2.29982 3.09601 2.49516 2.92734C2.69204 2.75888 2.9427 2.66642 3.20182 2.66667H11.3332" stroke="#8693A5" stroke-linecap="round" stroke-linejoin="round"/>
</svg>
