<svg width="24" height="24" viewBox="0 0 24 24" fill="none" xmlns="http://www.w3.org/2000/svg">
<path d="M21 12C20.9997 14.3869 20.0514 16.6759 18.3637 18.3637C16.6759 20.0514 14.3869 20.9997 12 21C10.22 21 8.47991 20.4722 6.99987 19.4832C5.51983 18.4943 4.36628 17.0887 3.68509 15.4442C3.0039 13.7996 2.82567 11.99 3.17294 10.2442C3.5202 8.49836 4.37737 6.89472 5.63604 5.63604C6.89472 4.37737 8.49836 3.5202 10.2442 3.17294C11.99 2.82567 13.7996 3.0039 15.4442 3.68509C17.0887 4.36628 18.4943 5.51983 19.4832 6.99987C20.4722 8.47991 21 10.22 21 12V12Z" stroke="#001A1A" stroke-width="1.2" stroke-linecap="round" stroke-linejoin="round"/>
<path d="M21 12H3" stroke="#001A1A" stroke-width="1.2" stroke-linecap="round" stroke-linejoin="round"/>
<path d="M12 3C13.96 5.704 15 8.82 15 12C15 15.18 13.96 18.296 12 21" stroke="#001A1A" stroke-width="1.2" stroke-linecap="round" stroke-linejoin="round"/>
<path d="M12 3C10.04 5.704 9 8.82 9 12C9 15.18 10.04 18.296 12 21" stroke="#001A1A" stroke-width="1.2" stroke-linecap="round" stroke-linejoin="round"/>
</svg>
