<svg width="16" height="16" viewBox="0 0 16 16" fill="none" xmlns="http://www.w3.org/2000/svg">
<path d="M1.80933 7.33334H4.66666V14H1.80933C1.7459 13.9996 1.68325 13.986 1.62531 13.9602C1.56738 13.9344 1.5154 13.8969 1.47266 13.85C1.38211 13.7508 1.33235 13.621 1.33333 13.4867V7.84534C1.3327 7.71114 1.38269 7.58164 1.47333 7.48267C1.51599 7.43589 1.56786 7.39842 1.62568 7.37261C1.68349 7.3468 1.74601 7.3332 1.80933 7.33267V7.33334Z" stroke="#8693A5" stroke-linecap="round" stroke-linejoin="round"/>
<path d="M4.66669 7.21733L7.33535 2C7.61535 2 7.89335 2.054 8.15269 2.15867C8.41202 2.264 8.64735 2.41733 8.84535 2.61133C9.04335 2.80467 9.20069 3.03533 9.30802 3.288C9.41535 3.54133 9.47069 3.81267 9.47069 4.08667V5.652H13.5994C13.7507 5.652 13.9 5.68333 14.038 5.74467C14.1754 5.80496 14.2985 5.89355 14.3994 6.00467C14.4987 6.11485 14.5733 6.24507 14.618 6.38652C14.6627 6.52798 14.6766 6.67739 14.6587 6.82467L13.858 13.086C13.825 13.3399 13.6991 13.5727 13.5047 13.7393C13.308 13.9081 13.0572 14.0006 12.798 14H4.66669" stroke="#8693A5" stroke-linecap="round" stroke-linejoin="round"/>
</svg>
