<svg width="24" height="24" viewBox="0 0 24 24" fill="none" xmlns="http://www.w3.org/2000/svg">
<path d="M19 11C19 13.21 18.105 15.21 16.657 16.657C15.3483 17.9657 13.6263 18.7802 11.7844 18.9617C9.94243 19.1432 8.09457 18.6804 6.55563 17.6521C5.01668 16.6239 3.88187 15.0939 3.34455 13.3228C2.80723 11.5516 2.90064 9.64899 3.60887 7.93902C4.3171 6.22905 5.59633 4.81754 7.2286 3.94501C8.86086 3.07248 10.7452 2.7929 12.5605 3.15392C14.3757 3.51494 16.0097 4.49422 17.1839 5.92489C18.3581 7.35557 18.9999 9.14913 19 11V11Z" stroke="#8693A5" stroke-width="1.5" stroke-linecap="round" stroke-linejoin="round"/>
<path d="M21 21L16.657 16.657" stroke="#8693A5" stroke-width="1.5" stroke-linejoin="round"/>
</svg>
